# File produced by Open Asset Import Library (http://www.assimp.sf.net)
# (assimp v6.0.0)

# 210 vertex positions
v 0 0.340000004 0.109999999
v 0 -1.7881393e-09 0.126499996
v 0.0860014632 0.340000004 0.0685838759
v 0 -1.7881393e-09 0.126499996
v 0.0989016816 -1.7881393e-09 0.0788714588
v 0.0860014632 0.340000004 0.0685838759
v 0.0860014632 0.340000004 0.0685838759
v 0.0989016816 -1.7881393e-09 0.0788714588
v 0.10724207 0.340000004 -0.024477303
v 0.0989016816 -1.7881393e-09 0.0788714588
v 0.12332838 -1.7881393e-09 -0.0281488989
v 0.10724207 0.340000004 -0.024477303
v 0.10724207 0.340000004 -0.024477303
v 0.12332838 -1.7881393e-09 -0.0281488989
v 0.0477272123 0.340000004 -0.0991065726
v 0.12332838 -1.7881393e-09 -0.0281488989
v 0.0548862927 -1.7881393e-09 -0.11397256
v 0.0477272123 0.340000004 -0.0991065726
v 0.0477272123 0.340000004 -0.0991065726
v 0.0548862927 -1.7881393e-09 -0.11397256
v -0.0477272123 0.340000004 -0.0991065726
v 0.0548862927 -1.7881393e-09 -0.11397256
v -0.0548862927 -1.7881393e-09 -0.11397256
v -0.0477272123 0.340000004 -0.0991065726
v -0.0477272123 0.340000004 -0.0991065726
v -0.0548862927 -1.7881393e-09 -0.11397256
v -0.10724207 0.340000004 -0.024477303
v -0.0548862927 -1.7881393e-09 -0.11397256
v -0.12332838 -1.7881393e-09 -0.0281488989
v -0.10724207 0.340000004 -0.024477303
v -0.10724207 0.340000004 -0.024477303
v -0.12332838 -1.7881393e-09 -0.0281488989
v -0.0860014632 0.340000004 0.0685838759
v -0.12332838 -1.7881393e-09 -0.0281488989
v -0.0989016816 -1.7881393e-09 0.0788714588
v -0.0860014632 0.340000004 0.0685838759
v -0.0860014632 0.340000004 0.0685838759
v -0.0989016816 -1.7881393e-09 0.0788714588
v -2.69422288e-17 0.340000004 0.109999999
v -0.0989016816 -1.7881393e-09 0.0788714588
v -3.09835652e-17 -1.7881393e-09 0.126499996
v -2.69422288e-17 0.340000004 0.109999999
v 0 0.340000004 0.109999999
v 0.0860014632 0.340000004 0.0685838759
v 0 0.340000004 0
v 0.0860014632 0.340000004 0.0685838759
v 0.10724207 0.340000004 -0.024477303
v 0 0.340000004 0
v 0.10724207 0.340000004 -0.024477303
v 0.0477272123 0.340000004 -0.0991065726
v 0 0.340000004 0
v 0.0477272123 0.340000004 -0.0991065726
v -0.0477272123 0.340000004 -0.0991065726
v 0 0.340000004 0
v -0.0477272123 0.340000004 -0.0991065726
v -0.10724207 0.340000004 -0.024477303
v 0 0.340000004 0
v -0.10724207 0.340000004 -0.024477303
v -0.0860014632 0.340000004 0.0685838759
v 0 0.340000004 0
v -0.0860014632 0.340000004 0.0685838759
v -2.69422288e-17 0.340000004 0.109999999
v 0 0.340000004 0
v 0.0989016816 -1.7881393e-09 0.0788714588
v 0 -1.7881393e-09 0.126499996
v 0 -1.7881393e-09 0
v 0.12332838 -1.7881393e-09 -0.0281488989
v 0.0989016816 -1.7881393e-09 0.0788714588
v 0 -1.7881393e-09 0
v 0.0548862927 -1.7881393e-09 -0.11397256
v 0.12332838 -1.7881393e-09 -0.0281488989
v 0 -1.7881393e-09 0
v -0.0548862927 -1.7881393e-09 -0.11397256
v 0.0548862927 -1.7881393e-09 -0.11397256
v 0 -1.7881393e-09 0
v -0.12332838 -1.7881393e-09 -0.0281488989
v -0.0548862927 -1.7881393e-09 -0.11397256
v 0 -1.7881393e-09 0
v -0.0989016816 -1.7881393e-09 0.0788714588
v -0.12332838 -1.7881393e-09 -0.0281488989
v 0 -1.7881393e-09 0
v -3.09835652e-17 -1.7881393e-09 0.126499996
v -0.0989016816 -1.7881393e-09 0.0788714588
v 0 -1.7881393e-09 0
v 0 0.299999982 0.720000029
v 0.562918663 0.299999982 0.44891265
v 0 1.14999998 0
v 0.562918663 0.299999982 0.44891265
v 0.701948106 0.299999982 -0.16021508
v 0 1.14999998 0
v 0.701948106 0.299999982 -0.16021508
v 0.312396288 0.299999982 -0.648697615
v 0 1.14999998 0
v 0.312396288 0.299999982 -0.648697615
v -0.312396288 0.299999982 -0.648697615
v 0 1.14999998 0
v -0.312396288 0.299999982 -0.648697615
v -0.701948106 0.299999982 -0.16021508
v 0 1.14999998 0
v -0.701948106 0.299999982 -0.16021508
v -0.562918663 0.299999982 0.44891265
v 0 1.14999998 0
v -0.562918663 0.299999982 0.44891265
v -1.76349136e-16 0.299999982 0.720000029
v 0 1.14999998 0
v 0.562918663 0.299999982 0.44891265
v 0 0.299999982 0.720000029
v 0 0.299999982 0
v 0.701948106 0.299999982 -0.16021508
v 0.562918663 0.299999982 0.44891265
v 0 0.299999982 0
v 0.312396288 0.299999982 -0.648697615
v 0.701948106 0.299999982 -0.16021508
v 0 0.299999982 0
v -0.312396288 0.299999982 -0.648697615
v 0.312396288 0.299999982 -0.648697615
v 0 0.299999982 0
v -0.701948106 0.299999982 -0.16021508
v -0.312396288 0.299999982 -0.648697615
v 0 0.299999982 0
v -0.562918663 0.299999982 0.44891265
v -0.701948106 0.299999982 -0.16021508
v 0 0.299999982 0
v -1.76349136e-16 0.299999982 0.720000029
v -0.562918663 0.299999982 0.44891265
v 0 0.299999982 0
v 0 0.879999995 0.550000012
v 0.430007309 0.879999995 0.342919379
v 0 1.65999997 0
v 0.430007309 0.879999995 0.342919379
v 0.536210358 0.879999995 -0.122386515
v 0 1.65999997 0
v 0.536210358 0.879999995 -0.122386515
v 0.238636062 0.879999995 -0.49553287
v 0 1.65999997 0
v 0.238636062 0.879999995 -0.49553287
v -0.238636062 0.879999995 -0.49553287
v 0 1.65999997 0
v -0.238636062 0.879999995 -0.49553287
v -0.536210358 0.879999995 -0.122386515
v 0 1.65999997 0
v -0.536210358 0.879999995 -0.122386515
v -0.430007309 0.879999995 0.342919379
v 0 1.65999997 0
v -0.430007309 0.879999995 0.342919379
v -1.34711154e-16 0.879999995 0.550000012
v 0 1.65999997 0
v 0.430007309 0.879999995 0.342919379
v 0 0.879999995 0.550000012
v 0 0.879999995 0
v 0.536210358 0.879999995 -0.122386515
v 0.430007309 0.879999995 0.342919379
v 0 0.879999995 0
v 0.238636062 0.879999995 -0.49553287
v 0.536210358 0.879999995 -0.122386515
v 0 0.879999995 0
v -0.238636062 0.879999995 -0.49553287
v 0.238636062 0.879999995 -0.49553287
v 0 0.879999995 0
v -0.536210358 0.879999995 -0.122386515
v -0.238636062 0.879999995 -0.49553287
v 0 0.879999995 0
v -0.430007309 0.879999995 0.342919379
v -0.536210358 0.879999995 -0.122386515
v 0 0.879999995 0
v -1.34711154e-16 0.879999995 0.550000012
v -0.430007309 0.879999995 0.342919379
v 0 0.879999995 0
v 0 1.43999994 0.360000014
v 0.281459332 1.43999994 0.224456325
v 0 2.24000001 0
v 0.281459332 1.43999994 0.224456325
v 0.350974053 1.43999994 -0.0801075399
v 0 2.24000001 0
v 0.350974053 1.43999994 -0.0801075399
v 0.156198144 1.43999994 -0.324348807
v 0 2.24000001 0
v 0.156198144 1.43999994 -0.324348807
v -0.156198144 1.43999994 -0.324348807
v 0 2.24000001 0
v -0.156198144 1.43999994 -0.324348807
v -0.350974053 1.43999994 -0.0801075399
v 0 2.24000001 0
v -0.350974053 1.43999994 -0.0801075399
v -0.281459332 1.43999994 0.224456325
v 0 2.24000001 0
v -0.281459332 1.43999994 0.224456325
v -8.81745681e-17 1.43999994 0.360000014
v 0 2.24000001 0
v 0.281459332 1.43999994 0.224456325
v 0 1.43999994 0.360000014
v 0 1.43999994 0
v 0.350974053 1.43999994 -0.0801075399
v 0.281459332 1.43999994 0.224456325
v 0 1.43999994 0
v 0.156198144 1.43999994 -0.324348807
v 0.350974053 1.43999994 -0.0801075399
v 0 1.43999994 0
v -0.156198144 1.43999994 -0.324348807
v 0.156198144 1.43999994 -0.324348807
v 0 1.43999994 0
v -0.350974053 1.43999994 -0.0801075399
v -0.156198144 1.43999994 -0.324348807
v 0 1.43999994 0
v -0.281459332 1.43999994 0.224456325
v -0.350974053 1.43999994 -0.0801075399
v 0 1.43999994 0
v -8.81745681e-17 1.43999994 0.360000014
v -0.281459332 1.43999994 0.224456325
v 0 1.43999994 0

# 0 UV coordinates

# 34 vertex normals
vn 0.433469594 0.0436817445 0.900108874
vn 0.433469594 0.0436817557 0.900108874
vn 0.973997355 0.0436817519 0.222308531
vn 0.973997355 0.0436817557 0.222308531
vn 0.781085193 0.0436817519 -0.622894704
vn 0 0.0436817557 -0.999045491
vn -0.781085193 0.0436817519 -0.622894704
vn -0.781085193 0.0436817557 -0.622894704
vn -0.973997355 0.0436817519 0.222308531
vn -0.433469594 0.0436817557 0.900108874
vn -0.433469594 0.0436817445 0.900108874
vn 0 1 0
vn 0 -1 0
vn 0.34491384 0.606681228 0.716220856
vn 0.775014281 0.606681228 0.176891968
vn 0.621513188 0.606681228 -0.495640218
vn 0 0.606681228 -0.79494518
vn -0.621513188 0.606681228 -0.495640218
vn -0.775014281 0.606681228 0.176891968
vn -0.34491384 0.606681228 0.716220856
vn 0.366227597 0.536235452 0.760479331
vn 0.822905838 0.536235452 0.187822923
vn 0.659919262 0.536235452 -0.526268065
vn 0 0.536235452 -0.844068468
vn -0.659919262 0.536235452 -0.526268065
vn -0.822905838 0.536235452 0.187822923
vn -0.366227597 0.536235452 0.760479331
vn 0.402092874 0.375729442 0.834954321
vn 0.903494358 0.375729442 0.206216723
vn 0.724546194 0.375729412 -0.577806354
vn 0 0.375729442 -0.926729381
vn -0.724546194 0.375729412 -0.577806354
vn -0.903494358 0.375729442 0.206216723
vn -0.402092874 0.375729442 0.834954321

# Mesh 'meshes[0]-0' with 28 faces
f  1//1 2//1 3//1
f  4//2 5//2 6//2
f  7//3 8//3 9//3
f  10//4 11//4 12//4
f  13//5 14//5 15//5
f  16//5 17//5 18//5
f  19//6 20//6 21//6
f  22//6 23//6 24//6
f  25//7 26//7 27//7
f  28//8 29//8 30//8
f  31//9 32//9 33//9
f  34//9 35//9 36//9
f  37//10 38//10 39//10
f  40//11 41//11 42//11
f  43//12 44//12 45//12
f  46//12 47//12 48//12
f  49//12 50//12 51//12
f  52//12 53//12 54//12
f  55//12 56//12 57//12
f  58//12 59//12 60//12
f  61//12 62//12 63//12
f  64//13 65//13 66//13
f  67//13 68//13 69//13
f  70//13 71//13 72//13
f  73//13 74//13 75//13
f  76//13 77//13 78//13
f  79//13 80//13 81//13
f  82//13 83//13 84//13

# Mesh 'meshes[0]-1' with 42 faces
f  85//14 86//14 87//14
f  88//15 89//15 90//15
f  91//16 92//16 93//16
f  94//17 95//17 96//17
f  97//18 98//18 99//18
f  100//19 101//19 102//19
f  103//20 104//20 105//20
f  106//13 107//13 108//13
f  109//13 110//13 111//13
f  112//13 113//13 114//13
f  115//13 116//13 117//13
f  118//13 119//13 120//13
f  121//13 122//13 123//13
f  124//13 125//13 126//13
f  127//21 128//21 129//21
f  130//22 131//22 132//22
f  133//23 134//23 135//23
f  136//24 137//24 138//24
f  139//25 140//25 141//25
f  142//26 143//26 144//26
f  145//27 146//27 147//27
f  148//13 149//13 150//13
f  151//13 152//13 153//13
f  154//13 155//13 156//13
f  157//13 158//13 159//13
f  160//13 161//13 162//13
f  163//13 164//13 165//13
f  166//13 167//13 168//13
f  169//28 170//28 171//28
f  172//29 173//29 174//29
f  175//30 176//30 177//30
f  178//31 179//31 180//31
f  181//32 182//32 183//32
f  184//33 185//33 186//33
f  187//34 188//34 189//34
f  190//13 191//13 192//13
f  193//13 194//13 195//13
f  196//13 197//13 198//13
f  199//13 200//13 201//13
f  202//13 203//13 204//13
f  205//13 206//13 207//13
f  208//13 209//13 210//13

